<?xml version="1.0" encoding="UTF-8"?>
<svg width="342px" height="203px" viewBox="0 0 342 203" version="1.1" xmlns="http://www.w3.org/2000/svg" xmlns:xlink="http://www.w3.org/1999/xlink">
    <title>crash</title>
    <g id="modules" stroke="none" stroke-width="1" fill="none" fill-rule="evenodd">
        <g id="ErrorBoundary" transform="translate(-617.000000, -148.000000)">
            <g id="Group" transform="translate(434.000000, 148.000000)">
                <g id="crash" transform="translate(183.422234, 0.000000)">
                    <path d="M305.541803,172.908598 C305.541803,187.077118 296.050264,194.097742 262.783491,194.097742 L87.7889043,194.097742 C73.2347834,194.097742 60.4063372,180.017357 70.8022551,165.809548 C81.1981731,151.611447 98.24738,156.082827 108.22756,149.091632 C121.035318,140.129608 111.585319,120.960291 133.416829,115.008514 C165.758371,106.183775 177.880128,135.599522 197.985635,135.599522 C218.081125,135.599522 224.661677,121.538706 246.150022,124.647101 C267.638203,127.755343 270.341322,144.826255 276.298266,149.974045 C284.614836,157.171091 305.541803,156.082827 305.541803,172.908598" id="Fill-1" fill-opacity="0.461942873" fill="#BBBBC1"></path>
                    <g id="Group-2" transform="translate(0.000000, 180.353027)" fill="#755D41">
                        <path d="M146.773716,0.677151045 C152.718794,0.0801010225 226.139172,12.9606351 279.84623,8.93448397 C323.136643,5.68921698 340.577766,21.6469725 340.577766,21.6469725 L340.577766,21.6469725 L82.732766,21.0109711 L0.577766038,21.6469725 L21.4332614,14.2015535 C21.4332614,14.2015535 27.8453383,13.2348474 36.348634,11.9692531 C41.5353851,8.17544101 47.5291139,4.41637027 51.9069189,3.53637939 C56.3247975,2.64902538 66.9143564,4.24188206 78.0643852,6.10113407 C81.2749356,6.17790727 94.4136162,8.28447881 105.589446,10.1650628 C107.409603,10.2910113 108.966345,10.3159674 110.182227,10.2090682 C114.952822,9.78942409 120.77288,8.07833105 126.603358,6.21226414 L128.192965,5.70034833 C135.07562,3.47279641 141.840899,1.17309414 146.773716,0.677151045 Z" id="Combined-Shape"></path>
                    </g>
                    <path d="M248.558996,86.3107365 C243.916782,96.3510687 230.368597,133.573433 212.182247,162.558297 C208.756387,168.014999 204.940428,173.096407 200.911768,177.76747 C199.359724,179.564987 197.777691,181.30392 196.172504,182.9787 C186.514046,193.059902 174.343417,185.340804 165.365576,190.341737 C155.400151,195.891187 157.497802,188.056059 154.152417,186.089495 C147.681052,182.280369 138.418134,180.090096 145.169008,153.999151 C147.595137,144.628427 150.981519,135.459523 155.412551,127.668174 C160.798142,118.196604 169.304271,107.591559 178.145837,97.6534649 C178.882255,96.8256911 179.620064,96.0033581 180.357873,95.1864661 C195.0842,78.9093605 210.092947,64.8812387 212.678759,61.3285934 C217.866707,54.198629 239.073761,65.2836112 246.548779,76.3508789 C248.924548,79.8667033 249.913271,83.3826543 248.558996,86.3107365" id="Fill-6" fill="#FFFFFF"></path>
                    <path d="M195.624638,154.0048 C200.601128,148.719538 200.246701,140.317513 194.833018,135.238625 C189.419168,130.159572 180.996195,130.326786 176.019705,135.612214 C171.043047,140.897475 175.93527,147.989545 181.34912,153.068432 C186.762803,158.147485 190.64798,159.290062 195.624638,154.0048" id="Fill-8" fill-opacity="0.344908388" fill="#3B3B4C"></path>
                    <path d="M216.887879,94.8360224 C216.887879,94.8360224 246.84413,71.9667144 249.756016,64.9098856 C252.667903,57.8529303 236.333858,62.0397551 233.354909,66.1569872 C230.375961,70.2742193 210.846598,99.5621276 216.887879,94.8360224" id="Fill-10" fill="#E84E1B"></path>
                    <path d="M215.115188,60.9330536 C215.513764,60.2540817 215.786188,59.497419 215.951439,58.6862209 C217.574468,50.7575851 208.880439,37.6153154 204.154713,40.5041727 C198.945002,43.689748 196.919474,62.611124 194.248632,80.0854775 C193.898137,82.368372 193.975322,83.7787001 194.376809,84.4931011 C196.823183,88.8774427 211.435251,67.2218318 215.115188,60.9330536" id="Fill-12" fill="#E84E1B"></path>
                    <path d="M196.173351,182.979687 C195.41593,183.793416 194.670149,184.548813 193.930188,185.251953 C193.912727,185.269414 193.893241,185.286876 193.875779,185.304337 C188.752489,190.147991 184.000066,192.383309 178.907903,193.313701 C171.405554,194.6886 163.167041,193.23601 151.918326,193.135037 C147.710876,193.096445 141.602659,189.667042 142.661987,184.541601 C143.403086,180.955931 137.909437,179.972522 137.932142,176.126069 C137.951446,172.899118 142.131817,169.114539 142.813952,164.968584 C143.338049,161.783515 144.067128,158.326781 145.015993,154.597497 C145.066479,154.399474 145.116965,154.199426 145.169476,153.999379 C157.575708,154.201451 181.022889,160.192752 192.52024,176.498833 C193.932213,178.499181 195.163498,180.658833 196.173351,182.979687" id="Fill-14" fill="#E84E1B"></path>
                    <path d="M248.558009,86.3107998 C243.916301,96.3516381 230.368116,133.574129 212.182272,162.55836 C208.756285,168.01367 204.940073,173.096217 200.912173,177.767028 C199.360382,179.56543 197.77759,181.303603 196.173415,182.979649 C196.09952,183.055442 196.02765,183.131235 195.953881,183.205003 C195.231382,183.958502 194.557598,184.638234 193.930251,185.251915 C193.912663,185.269376 193.893304,185.286964 193.875843,185.304299 C188.752553,190.148079 184.000129,192.383398 178.907966,193.313663 C180.345119,191.814382 181.788092,190.212231 183.23309,188.516699 C186.326803,184.890665 189.434182,180.845304 192.520176,176.498922 C216.936594,142.131124 240.183601,88.9773399 246.549943,76.3515748 C248.925079,79.8668931 249.913676,83.3820849 248.558009,86.3107998" id="Fill-16" fill-opacity="0.116703487" fill="#000000"></path>
                    <path d="M215.115188,60.9330536 C215.513764,60.2540817 215.786188,59.497419 215.951439,58.6862209 C209.974816,63.7711715 200.339387,74.8311003 194.376809,84.4931011 C196.823183,88.8774427 211.435251,67.2218318 215.115188,60.9330536" id="Fill-18" fill-opacity="0.249870354" fill="#000000"></path>
                    <g id="Group-24" transform="translate(147.337416, 159.982037)" fill="#FFFFFF" fill-rule="nonzero">
                        <path d="M2.36549504,20.8946462 C3.00202053,20.8331574 3.56787292,21.2993167 3.62936172,21.9358422 C3.94329506,25.1856464 5.51991309,26.966272 8.05143282,27.75045 C9.46040492,28.1869012 10.9892523,28.2595404 12.3598622,28.1170387 L12.4666447,28.1053691 L12.5656071,28.0934589 L12.6565152,28.0814545 L12.7965325,28.0603349 C13.4259067,27.9470492 14.0279515,28.3654216 14.1412373,28.9947958 C14.2525,29.6129312 13.8509229,30.2047046 13.2402891,30.3329668 L13.1919557,30.3421194 L13.1349957,30.3515627 L13.0305651,30.3673786 L12.9752788,30.375204 L12.8582819,30.3906832 C12.8380776,30.3932376 12.8175238,30.3957771 12.796625,30.3982986 L12.6671288,30.4131841 C12.6448681,30.4156202 12.6222714,30.4180318 12.5993432,30.4204156 C10.9442092,30.5924992 9.12006574,30.5058297 7.36620228,29.962543 C3.97680927,28.9126253 1.73182192,26.3771463 1.32429901,22.1585129 C1.26281021,21.5219874 1.72896955,20.956135 2.36549504,20.8946462 Z" id="Stroke-20"></path>
                        <path d="M4.54200165,-0.960364627 C5.1248986,-0.697349949 5.38421442,-0.0116030845 5.12119974,0.571293864 L5.05869234,0.708616453 L4.99503253,0.846068408 L4.92994741,0.984239289 L4.86316408,1.12371866 L4.79440965,1.26509607 L4.7234112,1.40896109 L4.61210903,1.63071255 L4.5343066,1.78337592 L4.45330501,1.94059036 L4.32520721,2.18623494 L4.18837621,2.4454357 L3.64501304,3.45997952 L3.48934382,3.75263294 L3.3896531,3.94183236 L3.24608139,4.21727656 L3.15424473,4.39562739 L3.06543156,4.56998836 L2.97957438,4.74055921 L2.89660568,4.9075397 L2.81645797,5.07112958 L2.73906373,5.2315286 L2.66435546,5.38893652 L2.59226567,5.54355309 L2.52272684,5.69557806 L2.45567147,5.84521119 L2.39103207,5.99265221 L2.32874111,6.1381009 C2.31855124,6.16218742 2.30845641,6.18619924 2.29845521,6.21014054 L2.23956037,6.35297525 L2.18284522,6.494317 C2.16429595,6.54120429 2.14609872,6.58787604 2.12824226,6.63436555 L2.07568399,6.77332063 C2.05849785,6.81947895 2.04164124,6.86548831 2.02510291,6.91138202 L1.9764315,7.04874945 L1.92960227,7.18562269 L1.88454771,7.32220148 C1.87718275,7.34495117 1.86988893,7.36769692 1.86266483,7.39044288 L1.82014571,7.52695454 C1.79234244,7.61800843 1.76560977,7.70919895 1.7398577,7.80079242 L1.7019538,7.93851815 L1.6654533,8.07704807 L1.6302887,8.21658193 L1.5963925,8.35731949 L1.56369718,8.49946051 L1.53213524,8.64320472 L1.50163919,8.7887519 C1.03856771,11.0514046 1.16150024,13.5514497 2.00737046,16.6016436 C2.17826195,17.2178754 1.81724227,17.8559649 1.20101043,18.0268564 C0.584778601,18.1977479 -0.0533109256,17.8367282 -0.224202412,17.2204964 C-1.16503988,13.8278523 -1.30614763,10.9581827 -0.767127156,8.3244292 L-0.749342037,8.23852817 L-0.712910009,8.06856455 L-0.675268829,7.90086357 C-0.65613393,7.81754103 -0.636518554,7.73498209 -0.616382132,7.65305946 L-0.57540254,7.49002488 C-0.561503087,7.43593767 -0.547360039,7.38209554 -0.532961374,7.32846076 L-0.488986511,7.16814078 C-0.436759801,6.98173851 -0.38125455,6.79741424 -0.321955394,6.6135506 L-0.270186406,6.45602827 C-0.208677235,6.27229581 -0.143226912,6.08856186 -0.0733200779,5.90320908 L-0.0122965231,5.74390108 C0.0601989604,5.55749121 0.137298202,5.36900038 0.219516565,5.17681124 L0.29125513,5.01113425 C0.303424508,4.98335789 0.315701362,4.95549663 0.328087196,4.92754574 L0.403721974,4.75872724 L0.482044377,4.58753148 L0.563126527,4.41373211 L0.647040544,4.23710281 L0.733858548,4.05741723 L0.823652661,3.87444904 L0.916495004,3.6879719 L1.0124577,3.49775947 L1.11161286,3.30358542 L1.21403261,3.1052234 L1.31978907,2.90244709 L1.48483787,2.58951071 L2.09651483,1.44691739 L2.26494704,1.1285465 L2.3817188,0.904908485 L2.49116349,0.692410107 L2.56043857,0.556116489 L2.65939291,0.35850893 L2.72239168,0.230611169 L2.81300746,0.0433003632 L2.87116445,-0.0792642497 L2.92778639,-0.200553162 L3.01034316,-0.381166541 C3.27335784,-0.964063489 3.95910471,-1.2233793 4.54200165,-0.960364627 Z" id="Stroke-22"></path>
                    </g>
                    <g id="Group-40" opacity="0.405565688" transform="translate(144.019443, 0.000000)" fill="#AEAEB5">
                        <path d="M122.585647,48.4586733 C120.655566,46.9937184 117.224204,48.9068857 119.286519,52.7174597 C121.34845,56.528226 119.168892,57.7273671 118.609011,58.4681092 C118.04913,59.2088512 116.193239,62.5298897 119.69879,62.9313973 C123.204341,63.3329049 128.565592,57.5211356 131.65868,58.4681092 C134.751768,59.4150828 137.020123,56.9404968 135.576694,54.2598716 C134.133266,51.5792463 131.65868,51.3180454 132.483606,48.4586733 C133.30834,45.5993013 128.165622,40.1657832 126.819063,43.1917934 C125.472696,46.2179958 125.266272,50.4931193 122.585647,48.4586733" id="Fill-25"></path>
                        <path d="M2.76332626,92.1866229 C-0.689841079,94.2827168 1.24462387,103.775115 7.34687984,99.9102512 C12.3172248,96.7625524 17.0202211,96.9363798 17.8908828,98.2167049 C20.9806391,102.760614 25.8884672,99.1254866 24.8211061,94.0402733 C23.6129549,88.2836391 23.3151104,84.1127984 26.6772979,79.8962138 C30.0394854,75.6796291 27.5916706,70.6477839 22.5506765,71.2444896 C17.5101907,71.8411952 12.7528097,79.8682591 8.82390431,76.8384783 C4.89499888,73.8086976 -2.81134836,82.3968884 1.05656501,86.3379922 C4.92397011,90.2790961 2.76332626,92.1866229 2.76332626,92.1866229" id="Fill-27"></path>
                        <path d="M49.1701739,61.6621021 C52.3945354,57.2753099 52.5992293,47.3515956 48.8939813,44.0972508 C44.7107298,40.4231394 48.9449145,34.3067317 52.5686693,30.5799573 C56.1924241,26.8531828 61.4662233,8.78630289 55.2308433,6.48969493 C48.9954633,4.19308698 47.2579676,-1.50835904 40.1928566,0.375401494 C33.3380133,2.20303938 26.2567574,3.14732215 28.8211011,11.9041851 C31.1901688,19.9939188 37.2356543,17.3694162 36.5852466,22.9622688 C35.9498306,28.4278843 33.8823261,32.1365919 37.4858998,35.7072993 C41.0892814,39.2780067 37.8662653,42.951926 37.5837301,47.8482426 C37.3133035,52.5371745 42.6436096,52.9138882 44.6511475,56.0481075 C46.2327683,58.5173118 45.1766246,63.3657704 45.0538083,65.2297343 C45.035357,65.5130383 45.3811263,65.6643004 45.5762102,65.4582611 L49.1701739,61.6621021 Z" id="Fill-121"></path>
                    </g>
                    <path d="M244.50169,108.460355 C243.238898,109.312676 241.990911,110.16778 240.768989,111.028326 C240.768989,111.028326 239.386119,111.884823 237.606316,112.37716 C236.468918,112.689441 235.167787,112.853174 233.962188,112.547599 C233.962188,112.547599 233.959531,112.54899 233.956747,112.547599 C231.836067,111.974787 239.057514,96.4084131 243.699855,86.8848385 C244.245336,85.7665467 244.755387,84.732905 245.208246,83.8163055 C245.999199,82.2233913 246.623762,80.9850204 246.981215,80.278591 C247.099776,80.0453921 247.188349,79.8709042 247.245794,79.7590497 C247.292105,79.662126 247.316652,79.6158152 247.316652,79.6158152 C247.316652,79.6158152 247.348032,79.6049334 247.412058,79.5844352 C247.548459,79.5435653 247.826704,79.4604336 248.220852,79.3484526 C248.713188,79.2093937 249.384189,79.0293383 250.192983,78.8315685 C251.642663,78.4810742 253.528752,78.0842691 255.592113,77.799192 C257.474153,77.540054 259.503604,77.375056 261.479784,77.4255424 C265.565763,77.5305641 269.430816,78.5561078 271.319563,81.5851628 C275.938748,89.0056452 259.319499,98.445835 244.50169,108.460355" id="Fill-29" fill="#E84E1B"></path>
                    <path d="M233.962568,112.548064 C238.560875,103.859744 247.894398,85.0536389 250.192983,78.8316697 C248.734572,79.1858334 247.717759,79.4907761 247.412311,79.5840303 C247.35651,79.6423617 247.300962,79.7005665 247.245415,79.7587713 C246.069424,82.0646946 231.014367,111.752951 233.956874,112.547067 C233.960164,112.548712 233.962568,112.548064 233.962568,112.548064" id="Fill-31" fill-opacity="0.185265174" fill="#000000"></path>
                    <path d="M224.955725,192.995691 C215.300431,183.238159 249.670379,191.807554 247.591202,194.183702 C245.512151,196.559851 230.83378,198.936 224.955725,192.995691" id="Fill-35" fill="#E84E1B"></path>
                    <path d="M98.9886639,196.274382 C90.1177426,197.201736 81.3355204,192.033907 84.5622187,192.189289 C87.788917,192.344544 91.5203523,189.183263 94.6043223,189.722796 C97.6882922,190.262203 98.9886639,196.274382 98.9886639,196.274382" id="Fill-37" fill="#E84E1B"></path>
                    <path d="M81.3356216,198.908526 C80.7415528,196.730401 81.7316675,194.441686 82.7216556,196.378135 C83.7117703,198.314458 81.3356216,198.908526 81.3356216,198.908526" id="Fill-39" fill="#E84E1B"></path>
                    <path d="M110.128643,193.909071 C110.722712,191.334899 116.464998,194.107093 114.880941,195.295105 C113.296884,196.483242 110.128643,198.666809 110.128643,196.288003 L110.128643,193.909071 Z" id="Fill-41" fill="#E84E1B"></path>
                    <path d="M137.99825,189.319521 C137.99825,187.610703 137.404181,187.662075 139.78033,189.319521 C142.156478,190.976967 144.136581,193.217979 141.16649,192.295559 C138.196273,191.373013 137.99825,189.319521 137.99825,189.319521" id="Fill-43" fill="#E84E1B"></path>
                    <path d="M74.4510411,194.072556 C78.4112468,195.45859 79.2033385,196.945471 78.6092697,193.924893 C78.0152009,190.904316 72.8668577,190.393632 72.8668577,190.393632 L70.0947897,192.442315 L74.4510411,194.072556 Z" id="Fill-45" fill="#E84E1B"></path>
                    <path d="M255.218122,191.554755 C258.257805,190.038266 260.831977,190.101153 260.237908,191.554755 C259.643966,193.008357 258.997007,192.71999 257.835441,193.161208 C256.673748,193.602426 255.218122,191.554755 255.218122,191.554755" id="Fill-47" fill="#E84E1B"></path>
                    <path d="M199.286394,190.814014 C200.276509,188.90148 200.672555,189.112535 202.454635,189.700025 C204.236715,190.287511 209.385058,189.717106 206.216817,191.091373 C203.048577,192.465639 199.286394,190.814014 199.286394,190.814014" id="Fill-49" fill="#E84E1B"></path>
                    <path d="M194.431834,194.554581 C183.937251,195.698938 182.461252,195.454731 182.749113,196.937309 C182.909429,197.762679 181.561102,198.324482 186.907468,198.199721 C192.253708,198.074961 194.431834,198.199721 194.431834,198.199721 L194.431834,194.554581 Z" id="Fill-51" fill="#FFFFFF"></path>
                    <path d="M214.91261,190.522564 C212.536461,190.231667 209.863341,190.627586 210.853329,191.221655 C211.843444,191.815723 214.417616,192.758135 214.91261,192.336404 C215.40773,191.914798 214.91261,190.522564 214.91261,190.522564" id="Fill-53" fill="#FFFFFF"></path>
                    <path d="M180.357861,95.1863522 C180.196912,100.696198 179.602337,103.294158 180.382408,103.963893 C181.332918,104.779393 182.554966,106.407736 182.554966,106.407736 L181.27155,113.331833 C181.27155,113.331833 182.283555,118.354656 182.554966,119.032616 C182.703009,119.403033 181.970551,117.874927 181.249964,116.27707 L181.070581,115.877211 C180.724126,115.100674 180.398066,114.343683 180.195036,113.816572 C179.596255,114.487659 178.022621,116.252196 177.803567,116.544233 C177.532029,116.906241 178.708526,117.90167 178.907941,118.468029 C179.107355,119.03426 178.618055,120.25479 178.424334,120.79774 C178.23074,121.34069 178.934765,121.657527 179.115833,122.336245 C179.296774,123.015091 178.165449,124.055818 178.424334,123.648511 C178.683219,123.24133 178.346517,121.838594 177.984508,121.385988 C177.6225,120.933509 178.210748,119.485474 178.424334,119.088922 C178.638047,118.69237 177.260491,117.58496 176.898482,117.041884 C176.657143,116.679917 177.582262,115.67438 178.578427,114.655421 L178.878313,114.34996 C179.278081,113.943823 179.671689,113.545621 179.989032,113.195684 L179.989032,113.195684 C179.839585,112.381196 181.223847,108.715431 179.989652,106.679148 C179.942202,107.599632 175.510791,108.715773 174.967841,108.715773 C174.424765,108.715773 175.631502,110.948307 175.571147,111.973851 C175.510791,112.999521 172.9165,115.231929 172.373424,115.533582 C171.830474,115.835361 168.994761,114.809565 168.994761,114.809565 C168.994761,114.809565 171.709763,114.990632 172.313195,114.809565 C172.9165,114.628497 174.243824,112.577283 174.726417,111.913495 C175.209138,111.249833 174.002527,109.92251 173.951787,108.776255 C173.901174,107.629873 177.320834,107.569391 179.314729,105.146425 C179.314729,105.146425 179.314764,105.146455 179.314833,105.146514 C178.556599,102.887514 178.217776,99.7714586 178.211241,98.805933 C178.20985,98.578175 178.185302,98.167578 178.145824,97.6534775 C178.882242,96.8257037 179.620051,96.0032442 180.357861,95.1863522 Z" id="Combined-Shape" fill-opacity="0.14011175" fill="#000000"></path>
                    <path d="M263.091792,196.772802 C268.144224,198.112272 275.080467,198.899555 274.573579,196.579587 C274.066818,194.259619 264.332061,195.230627 264.332061,195.230627 L263.091792,196.772802 Z" id="Fill-119" fill="#FFFFFF"></path>
                </g>
            </g>
        </g>
    </g>
</svg>