<svg xmlns="http://www.w3.org/2000/svg" width="105" height="64" viewBox="0 0 105 64">
    <g fill="none" fill-rule="evenodd">
        <g transform="translate(.5)">
            <path fill="#1DE9B6" fill-rule="nonzero" d="M8.5 0h12c4.418 0 8 3.582 8 8v12c0 4.418-3.582 8-8 8h-12c-4.418 0-8-3.582-8-8V8c0-4.418 3.582-8 8-8z"/>
            <path fill="#FFF" d="M18.885 21.2c.256-.825 1.09-3.699 1.09-4.757v-3.677c0-.495-.399-.898-.888-.898s-.887.403-.887.898v1.568c0 .092-.075.167-.167.167-.092 0-.167-.075-.167-.167v-2.45c0-.495-.398-.898-.887-.898s-.887.403-.887.898v1.747c0 .092-.075.167-.167.167-.092 0-.167-.075-.167-.167v-2.45c0-.495-.398-.898-.887-.898s-.887.403-.887.898v1.747c0 .092-.075.167-.167.167-.092 0-.167-.075-.167-.167v-5.03c0-.495-.398-.898-.887-.898-.49 0-.887.403-.887.898v7.789c0 .07-.044.132-.108.156-.065.024-.14.005-.185-.046L9.505 13.42l-.024-.025c-.166-.158-.385-.245-.615-.247H8.86c-.239.003-.46.094-.623.257-.204.205-.365.596.035 1.298.606 1.065 1.269 2.075 1.856 2.97.437.666.85 1.294 1.157 1.824.196.34.606 1.23.833 1.702h6.767z"/>
            <circle cx="15.865" cy="7.837" r="1" fill="#FFF" fill-rule="nonzero"/>
            <circle cx="18.542" cy="7.837" r="1" fill="#FFF" fill-rule="nonzero"/>
        </g>
        <g>
            <path fill="#FFB900" fill-rule="nonzero" d="M8.5 0h12c4.418 0 8 3.582 8 8v12c0 4.418-3.582 8-8 8h-12c-4.418 0-8-3.582-8-8V8c0-4.418 3.582-8 8-8z" transform="translate(1 36)"/>
            <path fill="#FFF" fill-rule="nonzero" d="M16.313 11.156C16.313 8.313 13.998 6 11.155 6S6 8.313 6 11.156c0 1.303.242 2.6.477 3.852.226 1.211.46 2.463.46 3.68C6.938 20.514 8.41 22 10.22 22c1.809 0 3.281-1.486 3.281-3.313 0-.232-.024-.485-.067-.692-.228-1.117.595-2.418 1.37-3.193.973-.974 1.51-2.268 1.51-3.646zm-3.798 7.027c.03.146.047.335.047.505 0 1.31-1.05 2.375-2.343 2.375s-2.344-1.066-2.344-2.375c0-1.304-.242-2.6-.477-3.852-.226-1.211-.46-2.463-.46-3.68 0-2.326 1.892-4.219 4.218-4.219s4.219 1.893 4.219 4.22c0 1.126-.439 2.186-1.236 2.982-.984.984-1.927 2.564-1.624 4.044z" transform="translate(1 36)"/>
            <path fill="#FFF" fill-rule="nonzero" d="M11.77 7.931c-2.06-.377-3.895 1.199-3.895 3.225 0 1.129.216 2.275.445 3.492.073.39.15.794.217 1.197.139.814.828 1.405 1.64 1.405.79 0 1.476-.562 1.63-1.336.002-.144.566-1.657-.606-3.088-.592-.721-1.45-1.152-2.375-1.197-.009-.16-.014-.317-.014-.473 0-1.413 1.274-2.58 2.788-2.303 1.84.337 2.542 2.631 1.214 3.96l.663.664c1.845-1.847.898-5.069-1.708-5.546zm-1.294 5.49c.86 1.048.416 2.148.412 2.309-.067.337-.366.582-.71.582-.354 0-.655-.262-.716-.624-.07-.41-.147-.819-.221-1.216-.123-.652-.242-1.284-.323-1.896.607.066 1.165.365 1.558.844z" transform="translate(1 36)"/>
            <path fill="#FFF" d="M17.281 13.5H22V14.5H17.281z" transform="translate(1 36)"/>
            <path fill="#FFF" d="M19.156 16.56L20.093 16.56 20.093 20.752 19.156 20.752z" transform="translate(1 36) rotate(-63.435 19.624 18.656)"/>
            <path fill="#FFF" d="M17.529 8.813L21.721 8.813 21.721 9.75 17.529 9.75z" transform="translate(1 36) rotate(-26.565 19.625 9.281)"/>
        </g>
        <g>
            <path fill="#FF6837" fill-rule="nonzero" d="M8.5 0h12c4.418 0 8 3.582 8 8v12c0 4.418-3.582 8-8 8h-12c-4.418 0-8-3.582-8-8V8c0-4.418 3.582-8 8-8z" transform="translate(37.08 36)"/>
            <g fill="#FFF">
                <path fill-rule="nonzero" d="M19.648 5.01c-.04-.051-1.01-1.266-2.67-2.486C14.758.894 12.344.032 9.995.032c-2.348 0-4.763.861-6.982 2.492C1.353 3.744.383 4.959.343 5.01L0 5.444l.343.434c.04.051 1.01 1.267 2.67 2.487 2.22 1.63 4.634 2.492 6.982 2.492 2.35 0 4.764-.862 6.983-2.492 1.66-1.22 2.63-2.436 2.67-2.487l.343-.434-.343-.434zM9.995 9.236c-2.09 0-3.791-1.701-3.791-3.792 0-.328.041-.645.12-.949l-.866-.146c-.085.352-.13.718-.13 1.095 0 1.35.577 2.569 1.497 3.422-1.184-.438-2.191-1.052-2.951-1.607-.942-.687-1.647-1.383-2.05-1.815.403-.432 1.108-1.127 2.05-1.815.76-.555 1.767-1.17 2.951-1.607l.581.655c.678-.635 1.59-1.025 2.59-1.025 2.09 0 3.791 1.701 3.791 3.792 0 2.09-1.7 3.792-3.792 3.792zm6.122-1.977c-.76.555-1.767 1.17-2.951 1.607.92-.853 1.496-2.071 1.496-3.422 0-1.35-.576-2.569-1.496-3.422 1.184.438 2.19 1.052 2.951 1.607.942.688 1.647 1.383 2.05 1.815-.403.432-1.108 1.128-2.05 1.815z" transform="translate(37.08 36) translate(4.5 9)"/>
                <path d="M7.583 4.707c-.072.233-.11.48-.11.737 0 1.393 1.13 2.523 2.522 2.523 1.394 0 2.523-1.13 2.523-2.523 0-1.393-1.13-2.523-2.523-2.523-.678 0-1.294.269-1.747.705l1.244 1.402-1.91-.321z" transform="translate(37.08 36) translate(4.5 9)"/>
            </g>
        </g>
        <g fill-rule="nonzero">
            <path fill="#5C56B6" d="M8.5 0h12c4.418 0 8 3.582 8 8v12c0 4.418-3.582 8-8 8h-12c-4.418 0-8-3.582-8-8V8c0-4.418 3.582-8 8-8z" transform="translate(75.16 36)"/>
            <path fill="#FFF" d="M13.772 5.5c3.24.024 4.552 1.052 5.544 2.159 2.064 2.303 1.627 4.324 1.627 4.325-.05 1.2-1.704 3.383-1.704 3.383-1.32 1.896-.672 7.667-.672 7.667h-4.91c-.097-.576-1.313-2.828-1.313-2.828-.535-.672-1.434-.437-1.92-.377-1.39.171-1.735-.24-1.735-.24-.303-.183-.16-.959-.16-.959.112-.399-.07-.595-.183-.751-.305-.426-.127-.624-.127-.624.095-.121.031-.184.031-.184-.336-.111-.36-.296-.36-.296l.009-.617c.055-.423-.137-.447-.137-.447-.768-.016-.751-.512-.751-.512-.032-.272.894-1.903.894-1.903.433-.832-.181-1.33-.223-1.76-.192-1.983.48-3.195 1.389-4.156 1.503-1.59 3.436-1.89 4.701-1.88zm.898 1.37c-.406 0-.613.199-.685.254-.014.01-.031.012-.046.004-.092-.046-.426-.196-.76-.08-.252.086-.396.317-.44.4-.01.018-.03.028-.05.023-.12-.029-.535-.108-.883.05-.368.166-.483.407-.512.488-.006.016-.021.027-.039.028-.08.003-.3.022-.436.137-.24.203-.217.362-.19.43.01.021 0 .045-.02.055-.11.054-.418.232-.609.61-.262.522-.157.97-.013 1.153.14.179.301.214.386.219.028.001.048.028.04.055-.044.154-.088.578.67.743.71.155 1.14.708 1.42.99.215.215.506.315.797.38.297.068.591.126.826.338.247.222.595 1.45.654 1.663.005.018.022.031.041.031h.365c.02 0 .038-.014.042-.034l.177-.838c.007-.035 1.72.106 1.851-.66.005-.026.032-.043.058-.034.164.06.692.206.978-.237.202-.313.148-.607.12-.708-.006-.02.004-.042.024-.051.146-.063.67-.358.6-1.328-.058-.782-.586-1.129-.512-1.25.213-.346.028-.921-.408-1.05-.018-.005-.03-.02-.032-.039l-.019-.204c-.06-.719-1.003-1.174-1.644-.876-.024.012-.054 0-.062-.026-.08-.255-.242-.325-.285-.35-.199-.112-.457-.098-.662-.013-.017.006-.036.002-.048-.01-.058-.064-.298-.262-.694-.262z" transform="translate(75.16 36)"/>
        </g>
        <path fill="#061C3F" d="M53.12 23.68h-3.413c-.382 0-.697-.087-.944-.261-.248-.174-.42-.397-.515-.669l-1.12-3.235h-7.216l-1.12 3.235c-.087.238-.257.452-.508.643-.252.191-.56.287-.925.287H33.92l7.347-18.56h4.506l7.347 18.56zm-11.52-6.4h4.48l-1.508-5.107-.344-1.146c-.131-.44-.26-.915-.388-1.427-.12.52-.244 1.003-.371 1.446-.128.444-.248.828-.36 1.152L41.6 17.28zm16.896 3.549h3.584v-9.357c0-.458.013-.938.038-1.438l-2.112 1.744c-.136.11-.273.188-.41.235-.136.047-.268.07-.396.07-.222 0-.42-.049-.595-.146-.175-.098-.305-.202-.39-.312L56.96 9.97l5.811-4.85h3.277v15.709h3.072v2.851H58.496v-2.851zm15.36 0h3.584v-9.357c0-.458.013-.938.038-1.438l-2.112 1.744c-.136.11-.273.188-.41.235-.136.047-.268.07-.396.07-.222 0-.42-.049-.595-.146-.175-.098-.305-.202-.39-.312L72.32 9.97l5.811-4.85h3.277v15.709h3.072v2.851H73.856v-2.851zm23.677-4.206v7.057h-4.346v-7.057L86.4 5.12h3.83c.378 0 .678.087.9.261.223.174.403.397.54.669l2.649 5.401.591 1.197c.18.366.339.727.476 1.083.128-.365.283-.73.462-1.095.18-.365.373-.76.579-1.185l2.622-5.401c.052-.11.123-.22.213-.331.09-.11.192-.21.308-.3.116-.089.249-.161.399-.216.15-.055.315-.083.494-.083h3.857l-6.787 11.503z"/>
    </g>
</svg>
