<svg xmlns="http://www.w3.org/2000/svg" width="64" height="64" viewBox="0 0 64 64">
    <g fill="none" fill-rule="evenodd">
        <path fill="#5C56B6" d="M57.024 29.73c.237-1.305-.005-2.652-.682-3.794-.334-.507-.195-1.189.312-1.523.19-.125.416-.19.645-.181h6.39V6.635c0-3.645-2.955-6.599-6.6-6.599H39.593v6.401c.005.607.5 1.097 1.108 1.092.181-.001.36-.047.52-.135 1.16-.705 2.54-.948 3.871-.682 2.988.54 4.973 3.4 4.433 6.39-.54 2.988-3.4 4.973-6.39 4.433-.623-.113-1.222-.332-1.771-.65-.526-.305-1.199-.125-1.502.4-.106.182-.157.39-.148.6l-.12 6.347h6.246c.606-.033 1.125.43 1.158 1.038.012.213-.04.427-.146.611-.486.835-.741 1.784-.737 2.75 0 3.036 2.462 5.499 5.5 5.498 2.658 0 4.936-1.903 5.41-4.52v.121z"/>
        <path fill="#FFA83D" d="M6.698 63.824h17.497H5.928c.256.017.513.017.77 0zM24.195 46.227c.022-.135.022-.271 0-.407v.132c.011.092.011.184 0 .275z"/>
        <path fill="#01B6F5" d="M34.016 26.343c-.079-.347-.192-.687-.34-1.012-.722-1.656-2.21-2.851-3.982-3.2-1.305-.246-2.656-.003-3.794.682-.507.334-1.189.194-1.523-.313-.126-.19-.19-.415-.182-.644v-6.423H6.6C2.954 15.433 0 18.387 0 22.032v17.597H6.829c.151-.053.29-.135.408-.242l.066-.066c.264-.413.264-.94 0-1.353-.22-.369-.39-.764-.506-1.177-.656-1.701-.308-3.627.902-4.993.775-1.05 1.903-1.784 3.178-2.068.238-.052.482-.085.726-.099 3.074-.267 5.782 2.009 6.05 5.083.015.171.022.344.02.515.005.966-.25 1.915-.736 2.75-.305.526-.126 1.199.4 1.503.186.108.398.159.611.147h6.247v-6.6c0-.846.979-1.154 1.716-.725.835.486 1.784.741 2.75.737 3.036-.006 5.494-2.472 5.487-5.51 0-.4-.045-.797-.132-1.188z"/>
        <path fill="#FF6837" d="M42.034 39.629c-.607.004-1.097.5-1.092 1.107 0 .182.047.36.135.52 1.556 2.609.703 5.984-1.906 7.54-.5.297-1.045.515-1.614.643-.78.165-1.584.165-2.364 0-2.968-.644-4.852-3.571-4.209-6.54.119-.55.322-1.077.602-1.566.337-.504.202-1.187-.303-1.525-.146-.098-.314-.16-.49-.18h-6.598v6.16c.026.145.026.294 0 .44-.18.661-.864 1.052-1.526.87-.065-.017-.13-.04-.19-.068-.832-.491-1.782-.746-2.75-.737-3.006.018-5.429 2.47-5.411 5.476.017 3.007 2.469 5.43 5.476 5.412.986-.005 1.952-.279 2.795-.792.534-.291 1.201-.095 1.493.437.089.163.135.345.135.531l-.022 6.467H41.79c3.645 0 6.6-2.954 6.6-6.599V39.63h-6.357z"/>
        <path fill="#FFA83D" d="M24.195 39.65L24.195 39.65 24.195 39.661z"/>
        <path fill="#FFB900" d="M22.59 56.39c-2.541 1.664-5.95.954-7.614-1.586-1.665-2.539-.955-5.948 1.584-7.613.94-.616 2.046-.93 3.169-.898.967-.01 1.917.245 2.75.737.624.286 1.36.011 1.647-.614.027-.061.05-.124.068-.189.011-.091.011-.183 0-.275V39.63h-6.247c-.606.032-1.125-.432-1.158-1.039-.012-.213.04-.426.147-.611.486-.835.74-1.784.736-2.75 0-3.086-2.502-5.586-5.588-5.585-.161 0-.322.006-.483.02-.244.014-.487.047-.725.1-1.243.274-2.35.98-3.124 1.99-1.21 1.365-1.557 3.29-.901 4.993.116.413.285.808.505 1.177.264.412.264.94 0 1.353l-.066.066c-.117.107-.256.189-.407.242l-.284.044H0v17.596c.042 3.374 2.577 6.196 5.928 6.599h18.267v-6.467c-.004-.607-.501-1.095-1.108-1.091-.173.001-.344.044-.498.123z"/>
    </g>
</svg>
