<?xml version="1.0" encoding="UTF-8"?>
<svg width="141px" height="24px" viewBox="0 0 141 24" version="1.1" xmlns="http://www.w3.org/2000/svg" xmlns:xlink="http://www.w3.org/1999/xlink">
    <title>logo</title>
    <g id="modules" stroke="none" stroke-width="1" fill="none" fill-rule="evenodd">
        <g id="rainbow-modules-getting-started-overview" transform="translate(-10.000000, -11.000000)">
            <g id="logo" transform="translate(10.000000, 11.000000)">
                <path d="M34.729,17 L34.729,12.576 C34.8083333,12.3846667 34.8935,12.2143333 34.9845,12.065 C35.0755,11.9156667 35.1805,11.7885 35.2995,11.6835 C35.4185,11.5785 35.5526667,11.498 35.702,11.442 C35.8513333,11.386 36.0216667,11.358 36.213,11.358 C36.3436667,11.358 36.4778333,11.3696667 36.6155,11.393 C36.7531667,11.4163333 36.857,11.428 36.927,11.428 C37.0016667,11.428 37.0611667,11.4105 37.1055,11.3755 C37.1498333,11.3405 37.1836667,11.281 37.207,11.197 L37.207,11.197 L37.319,9.902 C37.1183333,9.75733333 36.8523333,9.685 36.521,9.685 C36.101,9.685 35.737,9.8075 35.429,10.0525 C35.121,10.2975 34.855,10.6346667 34.631,11.064 L34.631,11.064 L34.526,10.252 C34.5026667,10.0886667 34.456,9.9755 34.386,9.9125 C34.316,9.8495 34.1923333,9.818 34.015,9.818 L34.015,9.818 L33,9.818 L33,17 L34.729,17 Z M39.804,17.112 C40.0606667,17.112 40.2951667,17.0898333 40.5075,17.0455 C40.7198333,17.0011667 40.9193333,16.937 41.106,16.853 C41.2926667,16.769 41.4723333,16.6651667 41.645,16.5415 C41.8176667,16.4178333 41.995,16.2743333 42.177,16.111 L42.177,16.111 L42.331,16.629 C42.3823333,16.7783333 42.4523333,16.8775 42.541,16.9265 C42.6296667,16.9755 42.7556667,17 42.919,17 L42.919,17 L43.703,17 L43.703,12.464 C43.703,12.058 43.6435,11.6846667 43.5245,11.344 C43.4055,11.0033333 43.2316667,10.7105 43.003,10.4655 C42.7743333,10.2205 42.4943333,10.0291667 42.163,9.8915 C41.8316667,9.75383333 41.456,9.685 41.036,9.685 C39.874,9.685 38.88,10.063 38.054,10.819 L38.054,10.819 L38.362,11.372 C38.4133333,11.456 38.481,11.5295 38.565,11.5925 C38.649,11.6555 38.7516667,11.687 38.873,11.687 C39.013,11.687 39.1401667,11.6543333 39.2545,11.589 C39.3688333,11.5236667 39.496,11.4501667 39.636,11.3685 C39.776,11.2868333 39.9381667,11.2133333 40.1225,11.148 C40.3068333,11.0826667 40.539,11.05 40.819,11.05 C41.2063333,11.05 41.5026667,11.1655 41.708,11.3965 C41.9133333,11.6275 42.016,11.9833333 42.016,12.464 L42.016,12.464 L42.016,12.884 C41.47,12.898 40.9846667,12.9388333 40.56,13.0065 C40.1353333,13.0741667 39.7631667,13.1616667 39.4435,13.269 C39.1238333,13.3763333 38.8543333,13.5023333 38.635,13.647 C38.4156667,13.7916667 38.2371667,13.9456667 38.0995,14.109 C37.9618333,14.2723333 37.8626667,14.4438333 37.802,14.6235 C37.7413333,14.8031667 37.711,14.984 37.711,15.166 C37.711,15.488 37.7623333,15.7703333 37.865,16.013 C37.9676667,16.2556667 38.1123333,16.4586667 38.299,16.622 C38.4856667,16.7853333 38.7073333,16.9078333 38.964,16.9895 C39.2206667,17.0711667 39.5006667,17.112 39.804,17.112 Z M40.336,15.922 C40.0466667,15.922 39.8121667,15.8566667 39.6325,15.726 C39.4528333,15.5953333 39.363,15.3783333 39.363,15.075 C39.363,14.921 39.4073333,14.7786667 39.496,14.648 C39.5846667,14.5173333 39.7316667,14.403 39.937,14.305 C40.1423333,14.207 40.4153333,14.1265 40.756,14.0635 C41.0966667,14.0005 41.5166667,13.9573333 42.016,13.934 L42.016,13.934 L42.016,15.145 C41.7686667,15.4063333 41.5155,15.6011667 41.2565,15.7295 C40.9975,15.8578333 40.6906667,15.922 40.336,15.922 Z M46.237,8.81 C46.391,8.81 46.5356667,8.78083333 46.671,8.7225 C46.8063333,8.66416667 46.9241667,8.586 47.0245,8.488 C47.1248333,8.39 47.2053333,8.27566667 47.266,8.145 C47.3266667,8.01433333 47.357,7.87433333 47.357,7.725 C47.357,7.571 47.3266667,7.42633333 47.266,7.291 C47.2053333,7.15566667 47.1248333,7.039 47.0245,6.941 C46.9241667,6.843 46.8063333,6.76483333 46.671,6.7065 C46.5356667,6.64816667 46.391,6.619 46.237,6.619 C46.0876667,6.619 45.9465,6.64816667 45.8135,6.7065 C45.6805,6.76483333 45.565,6.843 45.467,6.941 C45.369,7.039 45.2908333,7.15566667 45.2325,7.291 C45.1741667,7.42633333 45.145,7.571 45.145,7.725 C45.145,7.87433333 45.1741667,8.01433333 45.2325,8.145 C45.2908333,8.27566667 45.369,8.39 45.467,8.488 C45.565,8.586 45.6805,8.66416667 45.8135,8.7225 C45.9465,8.78083333 46.0876667,8.81 46.237,8.81 Z M47.119,17 L47.119,9.818 L45.383,9.818 L45.383,17 L47.119,17 Z M50.612,17 L50.612,11.806 C50.8453333,11.5726667 51.0926667,11.3883333 51.354,11.253 C51.6153333,11.1176667 51.8953333,11.05 52.194,11.05 C52.6046667,11.05 52.9103333,11.1701667 53.111,11.4105 C53.3116667,11.6508333 53.412,11.9903333 53.412,12.429 L53.412,12.429 L53.412,17 L55.141,17 L55.141,12.429 C55.141,12.0276667 55.0885,11.6601667 54.9835,11.3265 C54.8785,10.9928333 54.7245,10.7058333 54.5215,10.4655 C54.3185,10.2251667 54.0653333,10.0385 53.762,9.9055 C53.4586667,9.7725 53.111,9.706 52.719,9.706 C52.4763333,9.706 52.2523333,9.7305 52.047,9.7795 C51.8416667,9.8285 51.6491667,9.89616667 51.4695,9.9825 C51.2898333,10.0688333 51.1195,10.1738333 50.9585,10.2975 C50.7975,10.4211667 50.6446667,10.5553333 50.5,10.7 L50.5,10.7 L50.381,10.133 C50.311,9.923 50.164,9.818 49.94,9.818 L49.94,9.818 L48.883,9.818 L48.883,17 L50.612,17 Z M60.321,17.105 C60.783,17.105 61.203,17.0116667 61.581,16.825 C61.959,16.6383333 62.2821667,16.3758333 62.5505,16.0375 C62.8188333,15.6991667 63.0253333,15.292 63.17,14.816 C63.3146667,14.34 63.387,13.8103333 63.387,13.227 C63.387,12.6856667 63.324,12.198 63.198,11.764 C63.072,11.33 62.8911667,10.9601667 62.6555,10.6545 C62.4198333,10.3488333 62.1351667,10.1143333 61.8015,9.951 C61.4678333,9.78766667 61.0933333,9.706 60.678,9.706 C60.2253333,9.706 59.8228333,9.79583333 59.4705,9.9755 C59.1181667,10.1551667 58.7973333,10.3966667 58.508,10.7 L58.508,10.7 L58.508,6.598 L56.779,6.598 L56.779,17 L57.92,17 C58.0366667,17 58.1288333,16.9743333 58.1965,16.923 C58.2641667,16.8716667 58.312,16.7853333 58.34,16.664 L58.34,16.664 L58.417,16.181 C58.5336667,16.321 58.6561667,16.4481667 58.7845,16.5625 C58.9128333,16.6768333 59.054,16.7736667 59.208,16.853 C59.362,16.9323333 59.53,16.9941667 59.712,17.0385 C59.894,17.0828333 60.097,17.105 60.321,17.105 Z M59.88,15.789 C59.6233333,15.789 59.3795,15.74 59.1485,15.642 C58.9175,15.544 58.704,15.376 58.508,15.138 L58.508,15.138 L58.508,11.918 C58.732,11.6426667 58.9676667,11.4291667 59.215,11.2775 C59.4623333,11.1258333 59.7516667,11.05 60.083,11.05 C60.573,11.05 60.9486667,11.2261667 61.21,11.5785 C61.4713333,11.9308333 61.602,12.5013333 61.602,13.29 C61.602,13.7286667 61.5623333,14.1055 61.483,14.4205 C61.4036667,14.7355 61.2893333,14.9945 61.14,15.1975 C60.9906667,15.4005 60.8098333,15.5498333 60.5975,15.6455 C60.3851667,15.7411667 60.146,15.789 59.88,15.789 Z M67.902,17.105 C68.434,17.105 68.9181667,17.0186667 69.3545,16.846 C69.7908333,16.6733333 70.1641667,16.426 70.4745,16.104 C70.7848333,15.782 71.024,15.3923333 71.192,14.935 C71.36,14.4776667 71.444,13.9643333 71.444,13.395 C71.444,12.8303333 71.36,12.3193333 71.192,11.862 C71.024,11.4046667 70.7848333,11.0173333 70.4745,10.7 C70.1641667,10.3826667 69.7908333,10.1376667 69.3545,9.965 C68.9181667,9.79233333 68.434,9.706 67.902,9.706 C67.3653333,9.706 66.8776667,9.79233333 66.439,9.965 C66.0003333,10.1376667 65.6258333,10.3826667 65.3155,10.7 C65.0051667,11.0173333 64.7648333,11.4046667 64.5945,11.862 C64.4241667,12.3193333 64.339,12.8303333 64.339,13.395 C64.339,13.9643333 64.4241667,14.4776667 64.5945,14.935 C64.7648333,15.3923333 65.0051667,15.782 65.3155,16.104 C65.6258333,16.426 66.0003333,16.6733333 66.439,16.846 C66.8776667,17.0186667 67.3653333,17.105 67.902,17.105 Z M67.902,15.775 C67.2953333,15.775 66.8461667,15.5731667 66.5545,15.1695 C66.2628333,14.7658333 66.117,14.179 66.117,13.409 C66.117,12.639 66.2628333,12.0498333 66.5545,11.6415 C66.8461667,11.2331667 67.2953333,11.029 67.902,11.029 C68.4993333,11.029 68.9415,11.232 69.2285,11.638 C69.5155,12.044 69.659,12.6343333 69.659,13.409 C69.659,14.1836667 69.5155,14.7716667 69.2285,15.173 C68.9415,15.5743333 68.4993333,15.775 67.902,15.775 Z M75.644,17 C75.8353333,17 75.959,16.8973333 76.015,16.692 L76.015,16.692 L77.324,12.555 C77.366,12.415 77.4045,12.2738333 77.4395,12.1315 C77.4745,11.9891667 77.506,11.848 77.534,11.708 C77.5573333,11.848 77.5865,11.9868333 77.6215,12.1245 C77.6565,12.2621667 77.695,12.401 77.737,12.541 L77.737,12.541 L79.025,16.692 C79.0856667,16.8973333 79.1953333,17 79.354,17 L79.354,17 L80.74,17 L83.022,9.818 L81.706,9.818 C81.5893333,9.818 81.489,9.84833333 81.405,9.909 C81.321,9.96966667 81.2626667,10.0466667 81.23,10.14 L81.23,10.14 L80.173,13.976 C80.061,14.396 79.9746667,14.8043333 79.914,15.201 C79.8626667,15.0003333 79.8101667,14.7985 79.7565,14.5955 C79.7028333,14.3925 79.6456667,14.186 79.585,13.976 L79.585,13.976 L78.43,10.126 C78.402,10.0326667 78.3448333,9.95566667 78.2585,9.895 C78.1721667,9.83433333 78.0683333,9.804 77.947,9.804 L77.947,9.804 L77.184,9.804 C77.0673333,9.804 76.9681667,9.83433333 76.8865,9.895 C76.8048333,9.95566667 76.75,10.0326667 76.722,10.126 L76.722,10.126 L75.532,13.976 C75.4666667,14.186 75.4048333,14.3913333 75.3465,14.592 C75.2881667,14.7926667 75.2333333,14.9933333 75.182,15.194 C75.154,14.9933333 75.1201667,14.7926667 75.0805,14.592 C75.0408333,14.3913333 74.9953333,14.186 74.944,13.976 L74.944,13.976 L73.915,10.14 C73.887,10.0466667 73.8286667,9.96966667 73.74,9.909 C73.6513333,9.84833333 73.544,9.818 73.418,9.818 L73.418,9.818 L72.039,9.818 L74.314,17 L75.644,17 Z M87.572,13.493 L87.572,12.051 L83.946,12.051 L83.946,13.493 L87.572,13.493 Z M90.953,17 L90.953,11.743 C91.1396667,11.5283333 91.3415,11.3591667 91.5585,11.2355 C91.7755,11.1118333 92.01,11.05 92.262,11.05 C92.6353333,11.05 92.9188333,11.1596667 93.1125,11.379 C93.3061667,11.5983333 93.403,11.9483333 93.403,12.429 L93.403,12.429 L93.403,17 L95.139,17 L95.139,12.429 C95.139,12.205 95.1716667,12.0066667 95.237,11.834 C95.3023333,11.6613333 95.3921667,11.5178333 95.5065,11.4035 C95.6208333,11.2891667 95.7538333,11.2016667 95.9055,11.141 C96.0571667,11.0803333 96.2216667,11.05 96.399,11.05 C96.7863333,11.05 97.0803333,11.1655 97.281,11.3965 C97.4816667,11.6275 97.582,11.9716667 97.582,12.429 L97.582,12.429 L97.582,17 L99.311,17 L99.311,12.429 C99.311,11.995 99.2561667,11.61 99.1465,11.274 C99.0368333,10.938 98.877,10.6533333 98.667,10.42 C98.457,10.1866667 98.198,10.0093333 97.89,9.888 C97.582,9.76666667 97.2296667,9.706 96.833,9.706 C96.6043333,9.706 96.3768333,9.73166667 96.1505,9.783 C95.9241667,9.83433333 95.7106667,9.91366667 95.51,10.021 C95.3093333,10.1283333 95.125,10.2671667 94.957,10.4375 C94.789,10.6078333 94.649,10.812 94.537,11.05 C94.3923333,10.644 94.1741667,10.3185 93.8825,10.0735 C93.5908333,9.8285 93.2186667,9.706 92.766,9.706 C92.5513333,9.706 92.3541667,9.7305 92.1745,9.7795 C91.9948333,9.8285 91.8268333,9.895 91.6705,9.979 C91.5141667,10.063 91.3671667,10.1633333 91.2295,10.28 C91.0918333,10.3966667 90.96,10.525 90.834,10.665 L90.834,10.665 L90.722,10.133 C90.652,9.923 90.505,9.818 90.281,9.818 L90.281,9.818 L89.224,9.818 L89.224,17 L90.953,17 Z M104.127,17.105 C104.659,17.105 105.143167,17.0186667 105.5795,16.846 C106.015833,16.6733333 106.389167,16.426 106.6995,16.104 C107.009833,15.782 107.249,15.3923333 107.417,14.935 C107.585,14.4776667 107.669,13.9643333 107.669,13.395 C107.669,12.8303333 107.585,12.3193333 107.417,11.862 C107.249,11.4046667 107.009833,11.0173333 106.6995,10.7 C106.389167,10.3826667 106.015833,10.1376667 105.5795,9.965 C105.143167,9.79233333 104.659,9.706 104.127,9.706 C103.590333,9.706 103.102667,9.79233333 102.664,9.965 C102.225333,10.1376667 101.850833,10.3826667 101.5405,10.7 C101.230167,11.0173333 100.989833,11.4046667 100.8195,11.862 C100.649167,12.3193333 100.564,12.8303333 100.564,13.395 C100.564,13.9643333 100.649167,14.4776667 100.8195,14.935 C100.989833,15.3923333 101.230167,15.782 101.5405,16.104 C101.850833,16.426 102.225333,16.6733333 102.664,16.846 C103.102667,17.0186667 103.590333,17.105 104.127,17.105 Z M104.127,15.775 C103.520333,15.775 103.071167,15.5731667 102.7795,15.1695 C102.487833,14.7658333 102.342,14.179 102.342,13.409 C102.342,12.639 102.487833,12.0498333 102.7795,11.6415 C103.071167,11.2331667 103.520333,11.029 104.127,11.029 C104.724333,11.029 105.1665,11.232 105.4535,11.638 C105.7405,12.044 105.884,12.6343333 105.884,13.409 C105.884,14.1836667 105.7405,14.7716667 105.4535,15.173 C105.1665,15.5743333 104.724333,15.775 104.127,15.775 Z M111.281,17.105 C111.780333,17.105 112.217833,17.0023333 112.5935,16.797 C112.969167,16.5916667 113.301667,16.3233333 113.591,15.992 L113.591,15.992 L113.738,16.685 C113.798667,16.895 113.943333,17 114.172,17 L114.172,17 L115.229,17 L115.229,6.598 L113.5,6.598 L113.5,10.385 C113.276,10.1703333 113.021667,10 112.737,9.874 C112.452333,9.748 112.109333,9.685 111.708,9.685 C111.236667,9.685 110.812,9.7795 110.434,9.9685 C110.056,10.1575 109.731667,10.42 109.461,10.756 C109.190333,11.092 108.982667,11.4886667 108.838,11.946 C108.693333,12.4033333 108.621,12.898 108.621,13.43 C108.621,14.018 108.685167,14.5406667 108.8135,14.998 C108.941833,15.4553333 109.123833,15.8391667 109.3595,16.1495 C109.595167,16.4598333 109.876333,16.6966667 110.203,16.86 C110.529667,17.0233333 110.889,17.105 111.281,17.105 Z M111.869,15.733 C111.645,15.733 111.442,15.6921667 111.26,15.6105 C111.078,15.5288333 110.924,15.3958333 110.798,15.2115 C110.672,15.0271667 110.575167,14.7891667 110.5075,14.4975 C110.439833,14.2058333 110.406,13.85 110.406,13.43 C110.406,13.0146667 110.445667,12.6541667 110.525,12.3485 C110.604333,12.0428333 110.718667,11.7908333 110.868,11.5925 C111.017333,11.3941667 111.197,11.246 111.407,11.148 C111.617,11.05 111.852667,11.001 112.114,11.001 C112.38,11.001 112.6285,11.05 112.8595,11.148 C113.0905,11.246 113.304,11.414 113.5,11.652 L113.5,11.652 L113.5,14.872 C113.276,15.1473333 113.038,15.3596667 112.786,15.509 C112.534,15.6583333 112.228333,15.733 111.869,15.733 Z M119.289,17.112 C119.769667,17.112 120.187333,17.0198333 120.542,16.8355 C120.896667,16.6511667 121.221,16.4096667 121.515,16.111 L121.515,16.111 L121.634,16.685 C121.694667,16.895 121.839333,17 122.068,17 L122.068,17 L123.125,17 L123.125,9.818 L121.396,9.818 L121.396,15.012 C121.162667,15.2453333 120.915333,15.4285 120.654,15.5615 C120.392667,15.6945 120.112667,15.761 119.814,15.761 C119.408,15.761 119.1035,15.6408333 118.9005,15.4005 C118.6975,15.1601667 118.596,14.8206667 118.596,14.382 L118.596,14.382 L118.596,9.818 L116.867,9.818 L116.867,14.382 C116.867,14.7833333 116.9195,15.1508333 117.0245,15.4845 C117.1295,15.8181667 117.284667,16.1063333 117.49,16.349 C117.695333,16.5916667 117.9485,16.7795 118.2495,16.9125 C118.5505,17.0455 118.897,17.112 119.289,17.112 Z M126.583,17 L126.583,6.598 L124.854,6.598 L124.854,17 L126.583,17 Z M131.455,17.105 C131.707,17.105 131.967167,17.0863333 132.2355,17.049 C132.503833,17.0116667 132.7675,16.9475 133.0265,16.8565 C133.2855,16.7655 133.534,16.6441667 133.772,16.4925 C134.01,16.3408333 134.224667,16.153 134.416,15.929 L134.416,15.929 L133.919,15.299 C133.849,15.1916667 133.741667,15.138 133.597,15.138 C133.489667,15.138 133.378833,15.1706667 133.2645,15.236 C133.150167,15.3013333 133.017167,15.3736667 132.8655,15.453 C132.713833,15.5323333 132.5365,15.6046667 132.3335,15.67 C132.1305,15.7353333 131.889,15.768 131.609,15.768 C131.329,15.768 131.0735,15.7248333 130.8425,15.6385 C130.6115,15.5521667 130.412,15.4215 130.244,15.2465 C130.076,15.0715 129.940667,14.8498333 129.838,14.5815 C129.735333,14.3131667 129.67,13.9946667 129.642,13.626 L129.642,13.626 L134.087,13.626 C134.245667,13.626 134.353,13.5805 134.409,13.4895 C134.465,13.3985 134.493,13.2223333 134.493,12.961 C134.493,12.443 134.414833,11.9821667 134.2585,11.5785 C134.102167,11.1748333 133.886333,10.8341667 133.611,10.5565 C133.335667,10.2788333 133.006667,10.0676667 132.624,9.923 C132.241333,9.77833333 131.823667,9.706 131.371,9.706 C130.834333,9.706 130.3525,9.79933333 129.9255,9.986 C129.4985,10.1726667 129.136833,10.4258333 128.8405,10.7455 C128.544167,11.0651667 128.316667,11.4408333 128.158,11.8725 C127.999333,12.3041667 127.92,12.765 127.92,13.255 C127.92,13.885 128.011,14.4391667 128.193,14.9175 C128.375,15.3958333 128.624667,15.7971667 128.942,16.1215 C129.259333,16.4458333 129.632667,16.6908333 130.062,16.8565 C130.491333,17.0221667 130.955667,17.105 131.455,17.105 Z M132.939,12.583 L129.677,12.583 C129.756333,12.0603333 129.9395,11.6566667 130.2265,11.372 C130.5135,11.0873333 130.906667,10.945 131.406,10.945 C131.662667,10.945 131.887833,10.9881667 132.0815,11.0745 C132.275167,11.1608333 132.435,11.2786667 132.561,11.428 C132.687,11.5773333 132.7815,11.7511667 132.8445,11.9495 C132.9075,12.1478333 132.939,12.359 132.939,12.583 L132.939,12.583 Z M137.769,17.112 C138.235667,17.112 138.6475,17.0525 139.0045,16.9335 C139.3615,16.8145 139.661333,16.6488333 139.904,16.4365 C140.146667,16.2241667 140.329833,15.9721667 140.4535,15.6805 C140.577167,15.3888333 140.639,15.0703333 140.639,14.725 C140.639,14.4356667 140.588833,14.1883333 140.4885,13.983 C140.388167,13.7776667 140.255167,13.6015 140.0895,13.4545 C139.923833,13.3075 139.736,13.1861667 139.526,13.0905 C139.316,12.9948333 139.1025,12.9096667 138.8855,12.835 C138.6685,12.7603333 138.455,12.6915 138.245,12.6285 C138.035,12.5655 137.847167,12.4943333 137.6815,12.415 C137.515833,12.3356667 137.382833,12.2435 137.2825,12.1385 C137.182167,12.0335 137.132,11.904 137.132,11.75 C137.132,11.5166667 137.228833,11.3276667 137.4225,11.183 C137.616167,11.0383333 137.883333,10.966 138.224,10.966 C138.443333,10.966 138.6335,10.9893333 138.7945,11.036 C138.9555,11.0826667 139.099,11.1351667 139.225,11.1935 C139.351,11.2518333 139.461833,11.3043333 139.5575,11.351 C139.653167,11.3976667 139.743,11.421 139.827,11.421 C139.906333,11.421 139.971667,11.4058333 140.023,11.3755 C140.074333,11.3451667 140.123333,11.2926667 140.17,11.218 L140.17,11.218 L140.562,10.595 C140.291333,10.329 139.953,10.1143333 139.547,9.951 C139.141,9.78766667 138.690667,9.706 138.196,9.706 C137.752667,9.706 137.361833,9.7655 137.0235,9.8845 C136.685167,10.0035 136.402833,10.1621667 136.1765,10.3605 C135.950167,10.5588333 135.778667,10.791 135.662,11.057 C135.545333,11.323 135.487,11.603 135.487,11.897 C135.487,12.2143333 135.537167,12.485 135.6375,12.709 C135.737833,12.933 135.870833,13.122 136.0365,13.276 C136.202167,13.43 136.391167,13.5571667 136.6035,13.6575 C136.815833,13.7578333 137.032833,13.8453333 137.2545,13.92 C137.476167,13.9946667 137.693167,14.0635 137.9055,14.1265 C138.117833,14.1895 138.306833,14.2606667 138.4725,14.34 C138.638167,14.4193333 138.771167,14.5126667 138.8715,14.62 C138.971833,14.7273333 139.022,14.865 139.022,15.033 C139.022,15.145 138.999833,15.2535 138.9555,15.3585 C138.911167,15.4635 138.841167,15.5556667 138.7455,15.635 C138.649833,15.7143333 138.5285,15.7785 138.3815,15.8275 C138.2345,15.8765 138.058333,15.901 137.853,15.901 C137.591667,15.901 137.375833,15.8706667 137.2055,15.81 C137.035167,15.7493333 136.887,15.684 136.761,15.614 C136.635,15.544 136.524167,15.4786667 136.4285,15.418 C136.332833,15.3573333 136.231333,15.327 136.124,15.327 C136.016667,15.327 135.928,15.348 135.858,15.39 C135.788,15.432 135.727333,15.4926667 135.676,15.572 L135.676,15.572 L135.277,16.23 C135.417,16.356 135.579167,16.4726667 135.7635,16.58 C135.947833,16.6873333 136.1485,16.7806667 136.3655,16.86 C136.5825,16.9393333 136.808833,17.0011667 137.0445,17.0455 C137.280167,17.0898333 137.521667,17.112 137.769,17.112 Z" id="rainbow-modules" fill="#363739" fill-rule="nonzero"></path>
                <g id="Group">
                    <polygon id="Fill-1" fill="#424A52" points="1.10434292 4.14669379 0.386162813 5.31006479 0.386162813 19.495093 12.501692 23.7775789 24.6167513 19.5308746 24.6200414 5.24933032 24.1255875 4.21731526 12.5294228 0.309123168"></polygon>
                    <path d="M0.637807859,15.2397729 C0.715830043,15.2397729 0.792912202,15.2538972 0.865294228,15.2821458 L3.62427148,16.3362889 C3.8714984,16.4309217 4.03506298,16.6682098 4.03506298,16.9337465 L4.03506298,20.4224471 C4.03506298,20.7750836 3.74929498,21.061336 3.39725512,21.061336 C3.31970295,21.061336 3.24309081,21.0472117 3.17117879,21.0194339 L0.411731528,19.9723529 C0.164034593,19.878191 3.24613433e-15,19.640432 3.24613433e-15,19.3744245 L3.24613433e-15,15.8786618 C3.24613433e-15,15.5260252 0.285297988,15.2397729 0.637807859,15.2397729" id="Fill-2" fill="#FFCC00"></path>
                    <path d="M24.3486558,15.2738124 C24.7011656,15.2738124 24.9864636,15.559594 24.9864636,15.9127013 L24.9864636,19.398577 C24.9864636,19.6641138 24.822899,19.9018727 24.5747321,19.9960347 L21.8237451,21.0402908 C21.7518331,21.0680686 21.6752209,21.081722 21.5976687,21.081722 C21.2451589,21.081722 20.9598609,20.7959405 20.9598609,20.4428331 L20.9598609,16.9644904 C20.9598609,16.6989537 21.1234255,16.4611947 21.3701824,16.3670328 L24.1216394,15.3157145 C24.1940214,15.2879367 24.2711036,15.2738124 24.3486558,15.2738124" id="Fill-4" fill="#37C0F7"></path>
                    <path d="M0.637807859,10.0516844 C0.716300056,10.0516844 0.793382215,10.0658087 0.866234255,10.0940573 L3.62521151,11.1543209 C3.87196842,11.2489537 4.03506298,11.4862418 4.03506298,11.7508369 L4.03506298,15.2338878 C4.03506298,15.5869951 3.74929498,15.8727767 3.39725512,15.8727767 C3.31923294,15.8727767 3.24215078,15.8586524 3.16976875,15.8308746 L0.410321489,14.7762606 C0.163094567,14.6820987 3.24613433e-15,14.4443397 3.24613433e-15,14.1797446 L3.24613433e-15,10.6905733 C3.24613433e-15,10.3374659 0.285297988,10.0516844 0.637807859,10.0516844" id="Fill-6" fill="#FFCC00"></path>
                    <path d="M24.3486558,10.0962701 C24.7011656,10.0962701 24.9864636,10.3820516 24.9864636,10.7351589 L24.9864636,14.2139725 C24.9864636,14.4790384 24.8233691,14.7163266 24.5761421,14.8109593 L21.8251551,15.8622776 C21.7527731,15.8900554 21.6756909,15.9041797 21.5976687,15.9041797 C21.2451589,15.9041797 20.9598609,15.6183981 20.9598609,15.2652908 L20.9598609,11.7921269 C20.9598609,11.5275318 21.1229554,11.2902437 21.3692423,11.1951401 L24.1202294,10.1386429 C24.1930814,10.1103944 24.2706336,10.0962701 24.3486558,10.0962701" id="Fill-8" fill="#37C0F7"></path>
                    <path d="M9.27566272,8.00337929 C9.35274488,8.00337929 9.42935702,8.01703277 9.50126904,8.04481055 L11.857445,8.93887835 C12.105612,9.03304031 12.2691765,9.27079925 12.2691765,9.53633597 L12.2691765,13.0372776 C12.2691765,13.3899141 11.9838785,13.6766373 11.6313687,13.6766373 C11.5533465,13.6766373 11.4762643,13.662513 11.4034123,13.6342644 L9.04817635,12.7321928 C8.80047941,12.6380309 8.63785486,12.4002719 8.63785486,12.135206 L8.63785486,8.64226818 C8.63785486,8.28916083 8.92315285,8.00337929 9.27566272,8.00337929" id="Fill-10" fill="#FFCC00"></path>
                    <path d="M15.7287084,8.0521081 C16.0812183,8.0521081 16.3665163,8.33788965 16.3665163,8.69099699 L16.3665163,12.1740478 C16.3665163,12.4386429 16.2034217,12.6764019 15.9561948,12.7705638 L13.608009,13.6702814 C13.535627,13.6975883 13.4585448,13.7117126 13.3805227,13.7117126 C13.0280128,13.7117126 12.7422448,13.4259311 12.7422448,13.0728237 L12.7422448,9.58223993 C12.7422448,9.31670321 12.9062794,9.07894426 13.1544463,8.98431149 L15.5026321,8.09353936 C15.5750141,8.06576159 15.6516262,8.0521081 15.7287084,8.0521081" id="Fill-12" fill="#37C0F7"></path>
                    <path d="M4.95694679,6.46910434 C5.03402895,6.46910434 5.11111111,6.48275782 5.18302312,6.5105356 L7.94247039,7.55997063 C8.19016732,7.65460339 8.35420192,7.89189153 8.35420192,8.15789906 L8.35420192,11.6461288 C8.35420192,11.9992362 8.06843392,12.2854885 7.71592405,12.2854885 C7.63790186,12.2854885 7.56034969,12.2708934 7.48796766,12.2431156 L4.7285204,11.1847352 C4.48176349,11.0896316 4.31866892,10.8528143 4.31866892,10.5877484 L4.31866892,7.10799322 C4.31866892,6.75488588 4.60443692,6.46910434 4.95694679,6.46910434" id="Fill-14" fill="#FFCC00"></path>
                    <path d="M20.0386821,6.52061093 C20.391192,6.52061093 20.6764899,6.80639247 20.6764899,7.15949982 L20.6764899,10.6298388 C20.6764899,10.8939631 20.5138654,11.131722 20.2666385,11.2263548 L17.5161215,12.2814396 C17.4432694,12.3096881 17.3657172,12.3238124 17.2876951,12.3238124 C16.9351852,12.3238124 16.6498872,12.0380309 16.6498872,11.6849235 L16.6498872,8.20610999 C16.6498872,7.94104407 16.8139218,7.70328513 17.0611487,7.60912317 L19.8121357,6.562513 C19.8845178,6.53473522 19.9611299,6.52061093 20.0386821,6.52061093" id="Fill-16" fill="#37C0F7"></path>
                    <path d="M0.637807859,4.87804972 C0.71536003,4.87804972 0.791972175,4.89217402 0.863884189,4.91948098 L3.62333145,5.96750358 C3.87102839,6.06166554 4.03506298,6.29942449 4.03506298,6.56496121 L4.03506298,10.0974471 C4.03506298,10.4505544 3.74929498,10.7368068 3.39725512,10.7368068 C3.31923294,10.7368068 3.24168077,10.7226825 3.16835871,10.6944339 L0.409381463,9.63417025 C0.162624553,9.53953748 3.24613433e-15,9.30224935 3.24613433e-15,9.03718343 L3.24613433e-15,5.51693861 C3.24613433e-15,5.16383127 0.285297988,4.87804972 0.637807859,4.87804972" id="Fill-18" fill="#FFCC00"></path>
                    <polygon id="Clip-21" points="20.9596729 4.91387835 24.9866986 4.91387835 24.9866986 10.7787559 20.9596729 10.7787559"></polygon>
                    <path d="M24.1223914,4.95530961 C24.1947735,4.92800264 24.2713856,4.91387835 24.3484678,4.91387835 C24.7009776,4.91387835 24.9867456,5.2001307 24.9867456,5.55323805 L24.9867456,5.62950923 L24.9867456,9.08242825 C24.9867456,9.34749417 24.8236511,9.5847823 24.5773642,9.67941507 L21.8263771,10.7363831 C21.7535251,10.7641608 21.6759729,10.7787559 21.5979507,10.7787559 C21.2454409,10.7787559 20.9596729,10.4925036 20.9596729,10.1393962 L20.9596729,6.59796498 C20.9596729,6.33195744 21.1237075,6.0941985 21.3714044,6.00003654 L24.1223914,4.95530961 Z" id="Fill-20" fill="#37C0F7"></path>
                    <path d="M12.7002256,6.04085575 L15.6570784,7.15243767 C15.7802218,7.19575217 15.8432036,7.32522486 15.7985524,7.44292731 C15.7745817,7.50554501 15.7233503,7.55450923 15.6580184,7.57804972 L12.7895281,8.60676912 C12.5747321,8.6825695 12.3383155,8.68115707 12.1239895,8.60300264 L9.17559692,7.5290855 C9.05292348,7.48435857 8.99135176,7.35347345 9.03835307,7.23671262 C9.06279376,7.17550735 9.11402519,7.12701394 9.17888701,7.10441507 L12.0501974,6.04085575 C12.2598233,5.96788023 12.4905997,5.96788023 12.7002256,6.04085575" id="Fill-23" fill="#F8752D"></path>
                    <path d="M8.86806731,4.67254125 L11.4493796,5.61133597 C11.5744031,5.65465048 11.6392649,5.78694803 11.5936736,5.90653371 C11.5687629,5.97056385 11.5161215,6.02094049 11.4489096,6.04448098 L8.49205678,7.09250358 C8.28055086,7.16594991 8.04836435,7.16594991 7.83638842,7.09297439 L5.25601617,6.15182562 C5.13099267,6.10851112 5.06613085,5.97668437 5.11125212,5.85709869 C5.1356928,5.79259774 5.18833427,5.74175029 5.25554616,5.71868061 L8.21051889,4.67254125 C8.42296484,4.59862411 8.65562136,4.59862411 8.86806731,4.67254125" id="Fill-25" fill="#F8752D"></path>
                    <path d="M16.9789904,4.52635481 L20.0321959,5.56354878 C20.1586294,5.60827571 20.2234913,5.74433974 20.1779,5.86769191 C20.1529893,5.93360528 20.0998778,5.98586516 20.0317259,6.00940565 L16.9926208,7.10403842 C16.7778248,7.1798388 16.5423482,7.17936799 16.3275522,7.1030968 L13.3025475,6.02635481 C13.1761139,5.98115707 13.1112521,5.84509304 13.1573134,5.72174087 C13.1822241,5.65629831 13.2348656,5.60450923 13.3025475,5.58049793 L16.3125118,4.52682562 C16.5277778,4.45008362 16.7637244,4.44961281 16.9789904,4.52635481" id="Fill-27" fill="#F8752D"></path>
                    <path d="M4.38550479,2.87734351 L7.68640722,4.14711752 C7.821301,4.19325688 7.89086294,4.33449982 7.84245159,4.46208927 C7.81613085,4.53129831 7.75878925,4.58544144 7.68593721,4.61039435 L4.66845272,5.65841695 C4.44237639,5.73562976 4.19514946,5.73562976 3.96907313,5.65888776 L0.938898289,4.57272957 C0.723632262,4.49928324 0.61176913,4.27376535 0.688851288,4.06896309 C0.730682459,3.95785198 0.822335025,3.87075217 0.938898289,3.83120415 L3.68471517,2.87640189 C3.91126152,2.79918908 4.15895845,2.79965989 4.38550479,2.87734351" id="Fill-29" fill="#F8752D"></path>
                    <path d="M21.5097763,2.89278607 L24.1926114,3.81886893 C24.3984772,3.88901959 24.5047001,4.10229643 24.429968,4.29579925 C24.3900169,4.39937741 24.3030645,4.4808275 24.1930814,4.51849228 L21.3485618,5.54156196 C21.1290656,5.61689153 20.8888889,5.61642072 20.6698628,5.54109115 L17.5611957,4.48412317 C17.4324121,4.44033786 17.3666103,4.30662788 17.4131416,4.18610057 C17.4380523,4.12207044 17.4911638,4.07169379 17.5593157,4.0481533 L20.823087,2.89608174 C21.0444632,2.81792731 21.28746,2.81698569 21.5097763,2.89278607" id="Fill-31" fill="#F8752D"></path>
                    <path d="M12.8044275,3.05530961 L15.572805,4.0647258 C15.6959485,4.10945274 15.7594003,4.24598758 15.714279,4.36933974 C15.6907783,4.4347823 15.6386069,4.48657138 15.5732751,4.51058268 L12.7052547,5.54965989 C12.4946889,5.62640189 12.2634424,5.62640189 12.0519365,5.54965989 L9.28120887,4.53741884 C9.15806543,4.49269191 9.09461365,4.35615707 9.13973491,4.2328049 C9.16370558,4.16736234 9.21540703,4.11557326 9.28167889,4.09156196 L12.1529893,3.05530961 C12.3635552,2.97856761 12.5943316,2.97856761 12.8044275,3.05530961" id="Fill-33" fill="#F8752D"></path>
                    <path d="M8.52472269,1.45964106 L11.5783982,2.59570509 C11.7020117,2.64043202 11.7659334,2.77649605 11.7208122,2.89984822 C11.6968415,2.96576159 11.6446701,3.01755066 11.5788682,3.04156196 L8.80391051,4.05191978 C8.59334461,4.12819097 8.36209814,4.12819097 8.15200226,4.05144897 L5.01654446,2.87065801 C4.89340102,2.82546027 4.83041925,2.68892543 4.8750705,2.56604407 C4.89904117,2.5001307 4.95121263,2.44834162 5.01748449,2.42433032 L7.87610453,1.45917025 C8.0857304,1.38336987 8.31556684,1.38336987 8.52472269,1.45964106" id="Fill-35" fill="#F8752D"></path>
                    <path d="M17.2603873,1.46999887 L19.9686031,2.3748953 C20.0922166,2.4182098 20.1566084,2.55144897 20.1124271,2.67244709 C20.0889265,2.73694803 20.036755,2.7887371 19.9709532,2.81227759 L16.8340854,3.94316272 C16.6244595,4.01849228 16.394153,4.0194339 16.1840572,3.94551677 L13.535533,3.01378419 C13.4119195,2.97046968 13.3479977,2.83723051 13.392649,2.7162324 C13.4161497,2.65126064 13.4683211,2.60041319 13.534123,2.5768727 L16.6136492,1.47282373 C16.821865,1.39796498 17.0512314,1.39702336 17.2603873,1.46999887" id="Fill-37" fill="#F8752D"></path>
                    <polygon id="Clip-40" points="9.09533161 0.000224863364 16.0020251 0.000224863364 16.0020251 2.58831332 9.09533161 2.58831332"></polygon>
                    <path d="M13.1027919,0.0878896468 L15.8077176,0.973482867 C15.9567118,1.02150547 16.037084,1.1768727 15.9872626,1.31999887 C15.9600019,1.39768249 15.8974901,1.45982938 15.8175879,1.48901959 L13.1027919,2.47819097 C12.6962305,2.62649605 12.2468979,2.62508362 11.8412766,2.47348287 L9.27688475,1.50314388 C9.13024065,1.44852995 9.05785862,1.28986705 9.11473021,1.14862411 C9.14481105,1.07423616 9.20779282,1.01585575 9.28675503,0.9894904 L11.96489,0.0940101741 C12.3329103,-0.0293419916 12.7333615,-0.0312252308 13.1027919,0.0878896468" id="Fill-39" fill="#F8752D"></path>
                    <path d="M9.27566272,18.3308746 C9.3536849,18.3308746 9.43076706,18.3449989 9.50314909,18.3732475 L11.858855,19.2748482 C12.106082,19.369481 12.2691765,19.6067691 12.2691765,19.871835 L12.2691765,23.3365243 C12.2691765,23.6896316 11.9838785,23.9754132 11.6313687,23.9754132 C11.5542865,23.9754132 11.4776744,23.9617597 11.4052923,23.9339819 L9.04958639,23.0403849 C8.80141944,22.946223 8.63785486,22.7079932 8.63785486,22.4424565 L8.63785486,18.9697635 C8.63785486,18.6166561 8.92315285,18.3308746 9.27566272,18.3308746" id="Fill-42" fill="#FFCC00"></path>
                    <path d="M15.7287084,18.358464 C16.0812183,18.358464 16.3665163,18.6442456 16.3665163,18.9973529 L16.3665163,22.4601589 C16.3665163,22.7256957 16.2029517,22.9634546 15.9543147,23.0576166 L13.606599,23.9488595 C13.534217,23.9766373 13.4576048,23.9902908 13.3805227,23.9902908 C13.0280128,23.9902908 12.7422448,23.7040384 12.7422448,23.3509311 L12.7422448,19.8965996 C12.7422448,19.6315337 12.9058094,19.3937748 13.1530363,19.2996128 L15.501222,18.4003661 C15.5736041,18.3725883 15.6506862,18.358464 15.7287084,18.358464" id="Fill-44" fill="#37C0F7"></path>
                    <path d="M4.95694679,16.7832757 C5.03496898,16.7832757 5.11205114,16.7978708 5.18490318,16.8256486 L7.94388043,17.8844998 C8.19110735,17.9791326 8.35420192,18.2164207 8.35420192,18.4810158 L8.35420192,21.9570045 C8.35420192,22.3101119 8.06843392,22.5963642 7.71592405,22.5963642 C7.63837187,22.5963642 7.56175973,22.5822399 7.4893777,22.554933 L4.73040045,21.5040855 C4.48270352,21.4099235 4.31866892,21.1721646 4.31866892,20.9070987 L4.31866892,17.4221646 C4.31866892,17.0695281 4.60443692,16.7832757 4.95694679,16.7832757" id="Fill-46" fill="#FFCC00"></path>
                    <path d="M20.0386821,16.7896787 C20.4043523,16.7896787 20.7009306,17.0867597 20.7009306,17.4530497 L20.7009306,20.927626 C20.7009306,21.2030497 20.5312559,21.4497541 20.2741587,21.5476825 L17.5231716,22.5952343 C17.4479695,22.6239537 17.3680673,22.6385488 17.2876951,22.6385488 C16.9220248,22.6385488 16.6249765,22.3414678 16.6249765,21.974707 L16.6249765,18.5081345 C16.6249765,18.2331815 16.7946513,17.986948 17.0512784,17.8885488 L19.8017955,16.833464 C19.8774676,16.8042738 19.9578398,16.7896787 20.0386821,16.7896787" id="Fill-48" fill="#37C0F7"></path>
                    <path d="M9.27566272,13.1487183 C9.3536849,13.1487183 9.43076706,13.1628426 9.50314909,13.1910912 L11.858855,14.0931627 C12.106082,14.1873247 12.2691765,14.4250836 12.2691765,14.6896787 L12.2691765,18.171788 C12.2691765,18.5248953 11.9838785,18.8106768 11.6313687,18.8106768 C11.5533465,18.8106768 11.4762643,18.7965525 11.4034123,18.7692456 L9.04817635,17.8667032 C8.80047941,17.7720704 8.63785486,17.5347823 8.63785486,17.2701872 L8.63785486,13.7876072 C8.63785486,13.4349706 8.92315285,13.1487183 9.27566272,13.1487183" id="Fill-50" fill="#FFCC00"></path>
                    <path d="M15.7287084,13.1869009 C16.0812183,13.1869009 16.3665163,13.4726825 16.3665163,13.8257898 L16.3665163,17.2980121 C16.3665163,17.563078 16.2034217,17.8008369 15.9561948,17.8949989 L13.608009,18.7942456 C13.535627,18.8220234 13.4585448,18.8361477 13.3805227,18.8361477 C13.0280128,18.8361477 12.7422448,18.5503661 12.7422448,18.1972588 L12.7422448,14.7250365 C12.7422448,14.4599706 12.9058094,14.2226825 13.1530363,14.1280497 L15.501222,13.2292738 C15.5736041,13.2010252 15.6506862,13.1869009 15.7287084,13.1869009" id="Fill-52" fill="#37C0F7"></path>
                    <path d="M4.95694679,11.6015902 C5.03496898,11.6015902 5.11205114,11.6157145 5.18490318,11.6439631 L7.94388043,12.7023435 C8.19110735,12.7969763 8.35420192,13.0342644 8.35420192,13.2988595 L8.35420192,16.7809687 C8.35420192,17.1336053 8.06843392,17.4198576 7.71592405,17.4198576 C7.63790186,17.4198576 7.56034969,17.4052625 7.48796766,17.3779556 L4.7285204,16.3191043 C4.48176349,16.2240008 4.31866892,15.9867126 4.31866892,15.7221175 L4.31866892,12.2404791 C4.31866892,11.8873718 4.60443692,11.6015902 4.95694679,11.6015902" id="Fill-54" fill="#FFCC00"></path>
                    <path d="M20.0386821,11.6425036 C20.391192,11.6425036 20.6764899,11.9287559 20.6764899,12.2813925 L20.6764899,15.7531439 C20.6764899,16.0182098 20.5138654,16.2554979 20.2666385,16.3501307 L17.5161215,17.4056863 C17.4432694,17.4339348 17.3657172,17.4480591 17.2876951,17.4480591 C16.9351852,17.4480591 16.6498872,17.1618068 16.6498872,16.8091702 L16.6498872,13.3374188 C16.6498872,13.0723529 16.8129818,12.8350648 17.0597387,12.740432 L19.8107257,11.6848765 C19.8835777,11.6570987 19.9606599,11.6425036 20.0386821,11.6425036" id="Fill-56" fill="#37C0F7"></path>
                </g>
            </g>
        </g>
    </g>
</svg>