<svg xmlns="http://www.w3.org/2000/svg" width="63" height="64" viewBox="0 0 63 64">
    <g fill="none" fill-rule="evenodd">
        <path fill="#01B6F5" d="M55.188 30.909h5.434c0 16.247-13.082 29.44-29.287 29.615L55.188 30.91z"/>
        <g>
            <path fill="#78E3EC" d="M29.492 32.362h.021-.021z" transform="translate(1.359 30.88)"/>
            <path fill="#00D2FF" d="M53.829.029H.027c0 16.247 13.28 29.653 29.485 29.616C42.725 29.615 53.83 16.258 53.83.029z" transform="translate(1.359 30.88)"/>
        </g>
        <path fill="#01B6F5" d="M31.335 1.293L55.187 30.91h5.435c0-16.247-13.082-29.44-29.287-29.616z"/>
        <g>
            <path fill="#A0F6FA" d="M29.533.181h-.021.021z" transform="translate(1.359 1.112)"/>
            <path fill="#00D2FF" d="M29.512.181C13.306.144.027 13.551.027 29.797h53.802c0-16.23-11.104-29.585-24.317-29.616z" transform="translate(1.359 1.112)"/>
        </g>
        <path fill="#D7DEED" fill-rule="nonzero" d="M52.86 9.053C47.022 3.215 39.26 0 31.004 0 22.748 0 14.986 3.215 9.148 9.053 3.31 14.891.095 22.653.095 30.909c0 6.276 1.86 12.266 5.316 17.343 1.251 1.87 2.412 3.374 3.483 4.513 1.07 1.139 2.659 2.384 4.766 3.737 5.077 3.456 11.067 5.316 17.344 5.316 8.256 0 16.018-3.215 21.856-9.053 5.838-5.838 9.053-13.6 9.053-21.856 0-8.256-3.215-16.018-9.053-21.856zM24.233 2.842c-1.745 1.56-3.338 3.736-4.708 6.476-.73 1.459-1.377 3.038-1.936 4.714H7.594c3.977-5.501 9.843-9.55 16.639-11.19zM6.247 16.07h10.719c-1.176 4.203-1.836 8.914-1.917 13.82H2.153c.175-5.039 1.648-9.754 4.094-13.82zm8.802 15.858c.08 4.906.741 9.617 1.917 13.82H6.246c-2.445-4.067-3.918-8.781-4.093-13.82h12.896zM7.594 47.785h9.995c.56 1.677 1.206 3.256 1.936 4.715 1.37 2.74 2.963 4.917 4.708 6.476-6.796-1.64-12.662-5.689-16.64-11.19zm22.39 11.916c-3.212-.497-6.247-3.333-8.636-8.112-.594-1.187-1.13-2.46-1.605-3.804h10.242v11.916zm0-13.954h-10.9c-1.224-4.157-1.913-8.878-1.997-13.82h12.898v13.82zm0-15.857H17.088c.084-4.941.773-9.662 1.997-13.82h10.9v13.82zm0-15.858H19.744c.476-1.343 1.011-2.616 1.605-3.803 2.39-4.78 5.424-7.616 8.637-8.112v11.915zm29.87 15.858H46.959c-.08-4.906-.74-9.617-1.916-13.82H55.76c2.446 4.066 3.918 8.781 4.094 13.82zm-5.44-15.858h-9.995c-.56-1.676-1.206-3.255-1.936-4.714-1.37-2.74-2.964-4.917-4.708-6.476 6.796 1.64 12.662 5.689 16.639 11.19zM32.023 2.117c3.212.496 6.247 3.333 8.637 8.112.593 1.187 1.129 2.46 1.605 3.803H32.023V2.117zm0 13.953h10.9c1.224 4.157 1.914 8.879 1.997 13.82H32.023V16.07zm0 15.858H44.92c-.083 4.94-.773 9.662-1.997 13.82h-10.9v-13.82zm0 27.773V47.785h10.242c-.476 1.344-1.012 2.617-1.605 3.804-2.39 4.78-5.425 7.615-8.637 8.112zm5.752-.725c1.744-1.56 3.338-3.736 4.708-6.476.73-1.46 1.376-3.039 1.936-4.715h9.995c-3.977 5.502-9.843 9.552-16.64 11.191zM55.76 45.747H45.04c1.176-4.202 1.837-8.913 1.917-13.82h12.897c-.176 5.04-1.648 9.754-4.094 13.82z"/>
    </g>
</svg>
